Patient4_TMGait_0pt2_01_left_22_GRF.mot
version=1
nRows=65
nColumns=19
inDegrees=no
endheader
time	F1x	F1y	F1z	M1x	M1y	M1z	F2x	F2y	F2z	M2x	M2y	M2z	EC1x	EC1y	EC1z	EC2x	EC2y	EC2z
50.47	-2.8555	19.8368	4.3171	-7.4489	-5.0803	19.7865	-17.6636	747.3879	-41.3284	281.7813	49.9208	766.3015	-0.0592	0.0182	-0.0073	-0.0462	0.0165	0.9585
50.4921	-2.8465	14.7846	3.2054	-5.5335	-4.0125	14.7109	-17.2506	761.7882	-40.1768	287.3237	49.1523	780.5475	-0.0592	0.0182	-0.0073	-0.0462	0.0165	0.9585
50.5143	-2.4865	9.8648	2.155	-3.6843	-2.8853	9.7982	-17.4432	779.2483	-38.78	294.156	48.2536	797.487	-0.0592	0.0182	-0.0073	-0.0462	0.0165	0.9585
50.5364	-1.9406	5.6603	1.2741	-2.1136	-1.8565	5.6247	-18.2016	798.8886	-37.1801	301.9251	47.1995	816.2195	-0.0592	0.0182	-0.0073	-0.0462	0.0165	0.9585
50.5586	-1.3745	2.433	0.61003	-0.91503	-1.026	2.4498	-19.2879	819.196	-35.4588	310.009	45.9577	835.2334	-0.0592	0.0182	-0.0073	-0.0462	0.0165	0.9585
50.5807	-0.88273	0.1839	0.15593	-0.084502	-0.42128	0.25945	-20.3403	837.9682	-33.7378	317.5108	44.512	852.3286	-0.0592	0.0182	-0.0073	-0.0462	0.0165	0.9585
50.6029	-0.50644	-1.2296	-0.11923	0.43453	-0.03123	-1.0972	-20.9947	852.6408	-32.146	323.3969	42.8656	864.9482	-0.0592	0.0182	-0.0073	-0.0462	0.0165	0.9585
50.625	-0.25076	-2.0102	-0.25464	0.71948	0.17903	-1.8227	-20.9741	860.9134	-30.7956	326.7463	41.0477	870.8183	-0.0592	0.0182	-0.0073	-0.0462	0.0165	0.9585
50.6471	-0.10057	-2.3682	-0.2904	0.84901	0.25322	-2.1297	-20.1051	861.432	-29.7614	327.0141	39.0995	868.6254	-0.0592	0.0182	-0.0073	-0.0462	0.0165	0.9585
50.6693	-0.034801	-2.496	-0.26264	0.89379	0.23326	-2.2145	-18.321	854.2449	-29.0672	324.2056	37.0599	858.4661	-0.0592	0.0182	-0.0073	-0.0462	0.0165	0.9585
50.6914	-0.033683	-2.5549	-0.20069	0.91295	0.15576	-2.2398	-15.6677	840.7641	-28.6919	318.859	34.9692	841.8174	-0.0592	0.0182	-0.0073	-0.0462	0.0165	0.9585
50.7136	-0.074269	-2.6681	-0.12788	0.95283	0.051014	-2.3333	-12.2998	823.2994	-28.59	311.8644	32.8852	821.0789	-0.0592	0.0182	-0.0073	-0.0462	0.0165	0.9585
50.7357	-0.13046	-2.9203	-0.062753	1.0448	-0.052966	-2.5868	-8.4484	804.4188	-28.7076	304.2183	30.882	798.9258	-0.0592	0.0182	-0.0073	-0.0462	0.0165	0.9585
50.7579	-0.17572	-3.3544	-0.022282	1.2043	-0.12659	-3.0505	-4.3662	786.3871	-28.9794	296.8055	29.0224	777.7304	-0.0592	0.0182	-0.0073	-0.0462	0.0165	0.9585
50.78	-0.17662	-3.9588	-0.024509	1.4266	-0.13666	-3.7173	-0.30925	770.8201	-29.34	290.2647	27.3575	759.2119	-0.0592	0.0182	-0.0073	-0.0462	0.0165	0.9585
50.8021	-0.089215	-4.6522	-0.086221	1.6815	-0.048299	-4.5054	3.482	758.6163	-29.7378	284.9605	25.9361	744.3535	-0.0592	0.0182	-0.0073	-0.0462	0.0165	0.9585
50.8243	0.14047	-5.2649	-0.22718	1.9045	0.17877	-5.2351	6.8217	750.0333	-30.1471	281.013	24.8064	733.4693	-0.0592	0.0182	-0.0073	-0.0462	0.0165	0.9585
50.8464	0.56946	-5.5103	-0.47254	1.9885	0.59173	-5.5975	9.597	744.8225	-30.5708	278.3499	24.0113	726.3249	-0.0592	0.0182	-0.0073	-0.0462	0.0165	0.9585
50.8686	1.2498	-4.9621	-0.84616	1.7756	1.2369	-5.1311	11.7671	742.3979	-31.0287	276.7705	23.5756	722.3024	-0.0592	0.0182	-0.0073	-0.0462	0.0165	0.9585
50.8907	2.2163	-3.0447	-1.3577	1.0535	2.1415	-3.2082	13.347	741.9545	-31.5546	275.9909	23.5061	720.5237	-0.0592	0.0182	-0.0073	-0.0462	0.0165	0.9585
50.9129	3.4611	0.943	-1.9921	-0.43305	3.2867	0.93322	14.3903	742.5152	-32.1769	275.6624	23.7819	719.911	-0.0592	0.0182	-0.0073	-0.0462	0.0165	0.9585
50.935	4.8981	7.7445	-2.6923	-2.9522	4.5748	8.105	14.9652	742.9215	-32.8825	275.3684	24.343	719.2117	-0.0592	0.0182	-0.0073	-0.0462	0.0165	0.9585
50.9571	6.3136	17.9981	-3.3341	-6.7314	5.7903	19.0221	15.1384	741.8645	-33.5921	274.6349	25.0745	717.0631	-0.0592	0.0182	-0.0073	-0.0462	0.0165	0.9585
50.9793	7.3182	32.0378	-3.722	-11.883	6.5752	34.0904	14.9818	738.0798	-34.1822	273.0022	25.8189	712.187	-0.0592	0.0182	-0.0073	-0.0462	0.0165	0.9585
51.0014	7.4976	49.8422	-3.6182	-18.3826	6.5189	53.3375	14.5747	730.6035	-34.5185	270.1158	26.4101	703.6431	-0.0592	0.0182	-0.0073	-0.0462	0.0165	0.9585
51.0236	6.7032	71.1795	-2.7879	-26.122	5.309	76.5459	13.9811	718.8543	-34.4797	265.7558	26.7044	690.9134	-0.0592	0.0182	-0.0073	-0.0462	0.0165	0.9585
51.0457	4.9593	95.5687	-1.064	-34.907	2.771	103.198	13.2247	702.5747	-33.9785	259.8135	26.6113	673.8395	-0.0592	0.0182	-0.0073	-0.0462	0.0165	0.9585
51.0679	2.4155	122.3499	1.4918	-44.4981	-0.96914	132.5427	12.2971	681.8517	-32.9894	252.2965	26.1147	652.6153	-0.0592	0.0182	-0.0073	-0.0462	0.0165	0.9585
51.09	-0.64514	150.6987	4.5332	-54.6231	-5.4137	163.5912	11.1811	657.1601	-31.5499	243.3494	25.2652	627.798	-0.0592	0.0182	-0.0073	-0.0462	0.0165	0.9585
51.1121	-3.7782	179.6043	7.6222	-64.9574	-9.9106	195.1055	9.892	629.3384	-29.7575	233.2538	24.1583	600.2578	-0.0592	0.0182	-0.0073	-0.0462	0.0165	0.9585
51.1343	-6.5408	208.1336	10.4508	-75.1935	-13.9603	225.9573	8.514	599.5258	-27.7661	222.4079	22.9106	571.0974	-0.0592	0.0182	-0.0073	-0.0462	0.0165	0.9585
51.1564	-8.6275	235.7204	12.8796	-85.1358	-17.309	255.4798	7.178	569.008	-25.7524	211.2731	21.6347	541.5055	-0.0592	0.0182	-0.0073	-0.0462	0.0165	0.9585
51.1786	-9.8773	262.0781	14.9184	-94.67	-19.9246	283.3635	6.008	539.0051	-23.8668	200.2946	20.4149	512.5719	-0.0592	0.0182	-0.0073	-0.0462	0.0165	0.9585
51.2007	-10.2673	286.9582	16.6366	-103.6836	-21.8914	309.3855	5.0854	510.5084	-22.2192	189.8385	19.3133	485.1557	-0.0592	0.0182	-0.0073	-0.0462	0.0165	0.9585
51.2229	-9.9028	310.0568	18.0894	-112.0434	-23.3243	333.3002	4.4344	484.1646	-20.8822	180.1452	18.3818	459.806	-0.0592	0.0182	-0.0073	-0.0462	0.0165	0.9585
51.245	-8.9642	331.0996	19.29	-119.6327	-24.3166	354.9018	4.0375	460.2107	-19.891	171.3042	17.6563	436.7073	-0.0592	0.0182	-0.0073	-0.0462	0.0165	0.9585
51.2671	-7.643	349.9662	20.2289	-126.4022	-24.932	374.1306	3.8773	438.5284	-19.243	163.2737	17.1417	415.7244	-0.0592	0.0182	-0.0073	-0.0462	0.0165	0.9585
51.2893	-6.0965	366.7261	20.9142	-132.3787	-25.2305	391.0978	3.958	418.7739	-18.9042	155.9293	16.809	396.52	-0.0592	0.0182	-0.0073	-0.0462	0.0165	0.9585
51.3114	-4.4299	381.5808	21.3861	-137.638	-25.2817	406.0201	4.2865	400.4651	-18.8153	149.0983	16.6073	378.6395	-0.0592	0.0182	-0.0073	-0.0462	0.0165	0.9585
51.3336	-2.7131	394.8146	21.7118	-142.2855	-25.1685	419.1823	4.8613	383.0153	-18.8966	142.5719	16.4702	361.5422	-0.0592	0.0182	-0.0073	-0.0462	0.0165	0.9585
51.3557	-1.0011	406.7567	21.9716	-146.4418	-24.9863	430.9174	5.6623	365.819	-19.06	136.1357	16.33	344.6773	-0.0592	0.0182	-0.0073	-0.0462	0.0165	0.9585
51.3779	0.63488	417.7812	22.2387	-150.2442	-24.8316	441.6298	6.6435	348.3791	-19.2235	129.615	16.1326	327.6055	-0.0592	0.0182	-0.0073	-0.0462	0.0165	0.9585
51.4	2.0819	428.32	22.5695	-153.8527	-24.7972	451.8174	7.7353	330.3571	-19.3107	122.8905	15.8358	310.0404	-0.0592	0.0182	-0.0073	-0.0462	0.0165	0.9585
51.4221	3.1959	438.9195	23.0047	-157.4697	-24.9653	462.1179	8.8479	311.5574	-19.2576	115.8928	15.4129	291.8324	-0.0592	0.0182	-0.0073	-0.0462	0.0165	0.9585
51.4443	3.855	450.3196	23.5905	-161.362	-25.4108	473.3505	9.8727	291.8712	-19.0173	108.5817	14.8559	272.9091	-0.0592	0.0182	-0.0073	-0.0462	0.0165	0.9585
51.4664	3.9872	463.4675	24.4356	-165.8588	-26.2494	486.5112	10.6793	271.1996	-18.5582	100.9178	14.1776	253.2011	-0.0592	0.0182	-0.0073	-0.0462	0.0165	0.9585
51.4886	3.557	479.5191	25.7276	-171.3552	-27.6669	502.7773	11.1204	249.3866	-17.8594	92.8389	13.4056	232.5794	-0.0592	0.0182	-0.0073	-0.0462	0.0165	0.9585
51.5107	2.5532	499.8099	27.6701	-178.3105	-29.8578	523.4882	11.0498	226.2062	-16.9054	84.2545	12.5699	210.8341	-0.0592	0.0182	-0.0073	-0.0462	0.0165	0.9585
51.5329	0.99169	525.6967	30.3984	-187.196	-32.9415	549.9901	10.3509	201.5207	-15.6924	75.1055	11.7015	187.8175	-0.0592	0.0182	-0.0073	-0.0462	0.0165	0.9585
51.555	-1.0674	558.198	33.9326	-198.3707	-36.9124	583.2648	8.9734	175.529	-14.246	65.4595	10.8398	163.6885	-0.0592	0.0182	-0.0073	-0.0462	0.0165	0.9585
51.5771	-3.5296	597.5563	38.1681	-211.9253	-41.6311	623.4854	6.9737	148.8732	-12.6215	55.5516	10.0171	139.0061	-0.0592	0.0182	-0.0073	-0.0462	0.0165	0.9585
51.5993	-6.2754	642.9397	42.8818	-227.5799	-46.8333	669.7199	4.545	122.5221	-10.8922	45.7425	9.2354	114.6236	-0.0592	0.0182	-0.0073	-0.0462	0.0165	0.9585
51.6214	-9.132	692.3769	47.7402	-244.6595	-52.1245	719.8551	1.9774	97.5169	-9.1352	36.4237	8.4658	91.468	-0.0592	0.0182	-0.0073	-0.0462	0.0165	0.9585
51.6436	-11.8487	742.8993	52.3515	-262.1396	-57.0277	770.7432	-0.4196	74.7439	-7.423	27.9312	7.6667	70.3439	-0.0592	0.0182	-0.0073	-0.0462	0.0165	0.9585
51.6657	-14.1069	790.7649	56.3437	-278.7227	-61.0725	818.448	-2.362	54.8286	-5.8125	20.5025	6.7911	51.8326	-0.0592	0.0182	-0.0073	-0.0462	0.0165	0.9585
51.6879	-15.5687	831.8425	59.4405	-292.9695	-63.8855	858.6536	-3.6259	38.1223	-4.3427	14.2711	5.7984	36.2701	-0.0592	0.0182	-0.0073	-0.0462	0.0165	0.9585
51.71	-15.9429	862.266	61.485	-303.527	-65.232	887.3568	-4.0937	24.7526	-3.0496	9.286	4.6849	23.7863	-0.0592	0.0182	-0.0073	-0.0462	0.0165	0.9585
51.7321	-15.0531	879.2484	62.426	-309.4169	-65.0257	901.7071	-3.8243	14.6771	-1.9737	5.5303	3.5145	14.3571	-0.0592	0.0182	-0.0073	-0.0462	0.0165	0.9585
51.7543	-12.878	881.8272	62.2943	-310.306	-63.3181	900.7649	-3.104	7.6827	-1.1519	2.9237	2.4281	7.8005	-0.0592	0.0182	-0.0073	-0.0462	0.0165	0.9585
51.7764	-9.5263	871.2467	61.1864	-306.641	-60.2705	885.8734	-2.2372	3.2891	-0.58396	1.2866	1.5362	3.6781	-0.0592	0.0182	-0.0073	-0.0462	0.0165	0.9585
51.7986	-5.2038	850.7655	59.2624	-299.5784	-56.1361	860.4436	-1.4105	0.83643	-0.2319	0.37126	0.8692	1.3665	-0.0592	0.0182	-0.0073	-0.0462	0.0165	0.9585
51.8207	-0.18588	824.9163	56.732	-290.7194	-51.2336	829.1844	-0.71782	-0.35575	-0.043549	-0.078273	0.4089	0.21183	-0.0592	0.0182	-0.0073	-0.0462	0.0165	0.9585
51.8429	5.2309	798.4696	53.8337	-281.7417	-45.9075	797.0319	-0.18915	-0.89656	0.033279	-0.29122	0.11314	-0.37421	-0.0592	0.0182	-0.0073	-0.0462	0.0165	0.9585
51.865	10.7827	775.428	50.8159	-274.0412	-40.4934	768.1189	0.18666	-1.2798	0.046487	-0.4531	-0.069613	-0.87428	-0.0592	0.0182	-0.0073	-0.0462	0.0165	0.9585
51.8871	16.2711	758.3229	47.9137	-268.485	-35.2879	745.0785	0.44526	-1.8596	0.039505	-0.69699	-0.19314	-1.6343	-0.0592	0.0182	-0.0073	-0.0462	0.0165	0.9585
